<svg xmlns="http://www.w3.org/2000/svg" viewBox="0 0 200 200">
  <!-- In transit: compact Dragonfly van, facing right. -->
  <g transform="translate(10,35)">
    <rect x="5" y="35" width="120" height="55" rx="8" fill="#13A58F"/>
    <path d="M125 42 h24 c4 0 8 2 10 6 l11 19 c1 3 2 5 2 8 v15 h-47 Z" fill="#13A58F"/>
    <path d="M131 48 h17 c2 0 4 1 5 3 l9 15 h-31 Z" fill="#B7E9FA"/>
    <rect x="5" y="35" width="120" height="8" rx="4" fill="#0E8271"/>
    <rect x="168" y="80" width="8" height="10" rx="3" fill="#1D2125"/>
    <circle cx="38" cy="92" r="15" fill="#1D2125"/>
    <circle cx="38" cy="92" r="6" fill="#C9D7DF"/>
    <circle cx="138" cy="92" r="15" fill="#1D2125"/>
    <circle cx="138" cy="92" r="6" fill="#C9D7DF"/>
    <rect x="-10" y="52" width="12" height="5" rx="2.5" fill="#99DBD2"/>
    <rect x="-6" y="66" width="9" height="5" rx="2.5" fill="#99DBD2"/>
  </g>
</svg>
