<?xml version="1.0" encoding="UTF-8"?>
<svg xmlns="http://www.w3.org/2000/svg" xmlns:xlink="http://www.w3.org/1999/xlink" id="ON_THE_WAY" data-name="ON THE WAY" viewBox="0 0 1920 1080">
  <defs>
    <style>
      .cls-1 {
        fill: #1069a9;
      }

      .cls-1, .cls-2, .cls-3, .cls-4, .cls-5, .cls-6, .cls-7, .cls-8, .cls-9, .cls-10, .cls-11, .cls-12, .cls-13, .cls-14 {
        stroke-width: 0px;
      }

      .cls-2 {
        fill: #4aa28f;
      }

      .cls-15 {
        clip-path: url(#clippath);
      }

      .cls-3 {
        fill: none;
      }

      .cls-4 {
        fill: #f88223;
      }

      .cls-5 {
        fill: #4bc8f3;
      }

      .cls-6 {
        fill: #99dbd2;
      }

      .cls-7 {
        fill: #00a68f;
      }

      .cls-8 {
        fill: #4bc8f3;
      }

      .cls-9 {
        fill: #1069a9;
      }

      .cls-10 {
        fill: #fded50;
      }

      .cls-11 {
        fill: #1d2125;
      }

      .cls-12 {
        fill: #fff;
      }

      .cls-13 {
        fill: #00a68f;
      }

      .cls-14 {
        fill: #b7e9fa;
      }
    </style>
    <clipPath id="clippath">
      <rect class="cls-3" width="1920" height="1080"></rect>
    </clipPath>
  </defs>
  <g class="cls-15">
    <rect class="cls-14" x="0" y="0" width="1920" height="1080"></rect>
    <g>
      <path class="cls-12" d="M1920,269.25v422.55H486.28c3.65-108.85,55.41-169.84,126.4-202.16,64.9-24.02,111.79-36.88,153.14-97.21,60.15-104.15,206.54-115.74,280.52-19.29,39.28,62.3,69.27,89.19,136.65,40.34,149.66-106.42,115.82,159.7,263.77,95.36,77.12-29.37,83.49-162.44,176.28-158.25,28.32,4.36,53.33,30.85,81.29,24.31,23.85-5.62,35.98-32.06,50.28-52.58,40.01-57.51,107.18-71.56,165.4-53.07Z"></path>
      <g>
        <rect class="cls-1" x="1649.57" y="534.63" width="54.22" height="158.17"></rect>
        <path class="cls-8" d="M1649.57,534.63l42.75-28.5c2.43-1.62,5.28-2.48,8.2-2.48h45.29s-42.02,30.98-42.02,30.98h-54.22Z"></path>
        <polygon class="cls-13" points="1703.8 534.63 1703.8 692.8 1788.04 692.8 1788.04 534.63 1745.82 503.64 1703.8 534.63"></polygon>
        <path class="cls-13" d="M839.53,411.6l-82.77,31.95c-5.55,2.14-9.21,7.48-9.21,13.42v235.83h91.98v-281.21Z"></path>
        <path class="cls-4" d="M681.07,607.32l31.75-17.86,33.95,19.11v84.25h-67.91v-81.72c0-1.56.84-3,2.21-3.77"></path>
        <polygon class="cls-5" points="746.77 608.56 778.92 608.56 746.77 589.45 712.82 589.45 746.77 608.56"></polygon>
        <rect class="cls-12" x="746.77" y="608.56" width="32.15" height="84.24"></rect>
        <path class="cls-12" d="M1074.69,692.8V235.85c0-2.29,1.47-4.32,3.64-5.05l47.52-15.78c2.17-.72,3.64-2.75,3.64-5.04v-15.07c0-2.15,1.29-4.09,3.28-4.91l15.44-6.39v509.2h-73.52Z"></path>
        <path class="cls-7" d="M1261.01,241.78c1.83.61,3.07,2.32,3.07,4.25v446.77h-115.87V183.61l48.75,16.78c1.81.62,3.02,2.32,3.02,4.23v13.72c0,1.93,1.24,3.64,3.07,4.25l57.97,19.2Z"></path>
        <path class="cls-10" d="M1034.73,313.16l-29.31,29.37h19.59c5.37,0,9.71-4.35,9.71-9.72v-19.65Z"></path>
        <path class="cls-4" d="M1075.08,313.16v379.65h-150.4v-340.33c0-5.49,4.45-9.94,9.94-9.94h90.86c5.11,0,9.26-4.15,9.26-9.26v-20.11h40.34Z"></path>
        <path class="cls-12" d="M1186.68,469.11h0c-1.43,0-2.58,1.16-2.58,2.58v11.94c0,1.43,1.16,2.58,2.58,2.58s2.58-1.16,2.58-2.58v-11.94c0-1.43-1.16-2.58-2.58-2.58"></path>
        <path class="cls-12" d="M1220.96,338.85h0c-1.43,0-2.58,1.16-2.58,2.58v11.94c0,1.43,1.16,2.58,2.58,2.58h0c1.43,0,2.58-1.16,2.58-2.58v-11.94c0-1.43-1.16-2.58-2.58-2.58"></path>
        <rect class="cls-12" x="773.82" y="466.33" width="5.16" height="17.11" rx="2.58" ry="2.58"></rect>
        <rect class="cls-12" x="806.87" y="533.98" width="5.17" height="17.11" rx="2.58" ry="2.58"></rect>
        <path class="cls-12" d="M1676.69,558.32h0c-1.43,0-2.58,1.16-2.58,2.58v11.94c0,1.43,1.16,2.58,2.58,2.58s2.58-1.16,2.58-2.58v-11.94c0-1.42-1.16-2.58-2.58-2.58"></path>
        <g>
          <rect class="cls-12" x="1234.06" y="419.86" width="53.77" height="272.95"></rect>
          <path class="cls-10" d="M1234.06,419.86l57.21-59.36c2.8-2.9,6.65-4.54,10.68-4.54h47.47s-61.58,63.91-61.58,63.91h-53.77Z"></path>
          <polygon class="cls-4" points="1349.41 355.95 1349.41 692.8 1287.83 692.8 1287.83 419.86 1349.41 355.95"></polygon>
          <path class="cls-12" d="M1326.37,436.13h0c-1.43,0-2.58,1.16-2.58,2.58v11.94c0,1.43,1.16,2.58,2.58,2.58,1.43,0,2.58-1.16,2.58-2.58v-11.94c0-1.43-1.16-2.58-2.58-2.58"></path>
          <path class="cls-12" d="M1311.72,538.96h0c-1.43,0-2.58,1.16-2.58,2.58v11.94c0,1.43,1.16,2.58,2.58,2.58h0c1.43,0,2.58-1.16,2.58-2.58v-11.94c0-1.43-1.16-2.58-2.58-2.58"></path>
          <path class="cls-13" d="M1287.83,434.7h-38.92c-.79,0-1.43.64-1.43,1.43s.64,1.43,1.43,1.43h38.92v-2.85Z"></path>
          <path class="cls-4" d="M1287.83,434.7h0v2.85h0c.79,0,1.43-.64,1.43-1.43s-.64-1.43-1.43-1.43"></path>
          <path class="cls-13" d="M1287.83,451.03h-38.92c-.79,0-1.43.64-1.43,1.43s.64,1.43,1.43,1.43h38.92v-2.85Z"></path>
          <path class="cls-4" d="M1287.83,451.03h0v2.85h0c.79,0,1.43-.64,1.43-1.43s-.64-1.43-1.43-1.43"></path>
          <path class="cls-13" d="M1287.83,467.36h-38.92c-.79,0-1.43.64-1.43,1.43s.64,1.43,1.43,1.43h38.92v-2.85Z"></path>
          <path class="cls-4" d="M1287.83,467.36h0v2.85h0c.79,0,1.43-.64,1.43-1.43s-.64-1.43-1.43-1.43"></path>
          <path class="cls-13" d="M1287.83,483.63h-38.92c-.79,0-1.43.64-1.43,1.43s.64,1.43,1.43,1.43h38.92v-2.85Z"></path>
          <path class="cls-4" d="M1287.83,483.63h0v2.85h0c.79,0,1.43-.64,1.43-1.43s-.64-1.43-1.43-1.43"></path>
          <path class="cls-13" d="M1287.83,499.96h-38.92c-.79,0-1.43.64-1.43,1.43s.64,1.43,1.43,1.43h38.92v-2.85Z"></path>
          <path class="cls-4" d="M1287.83,499.96h0v2.85h0c.79,0,1.43-.64,1.43-1.43s-.64-1.43-1.43-1.43"></path>
          <path class="cls-13" d="M1287.83,516.22h-38.92c-.79,0-1.43.64-1.43,1.43s.64,1.43,1.43,1.43h38.92v-2.85Z"></path>
          <path class="cls-4" d="M1287.83,516.22h0v2.85h0c.79,0,1.43-.64,1.43-1.43s-.64-1.43-1.43-1.43"></path>
          <path class="cls-13" d="M1287.83,532.55h-38.92c-.79,0-1.43.64-1.43,1.43s.64,1.43,1.43,1.43h38.92v-2.85Z"></path>
          <path class="cls-4" d="M1287.83,532.55h0v2.85h0c.79,0,1.43-.64,1.43-1.43s-.64-1.43-1.43-1.43"></path>
          <path class="cls-13" d="M1287.83,548.89h-38.92c-.79,0-1.43.64-1.43,1.43s.64,1.43,1.43,1.43h38.92v-2.85Z"></path>
          <path class="cls-4" d="M1287.83,548.89h0v2.85h0c.79,0,1.43-.64,1.43-1.43s-.64-1.43-1.43-1.43"></path>
          <path class="cls-13" d="M1287.83,565.15h-38.92c-.79,0-1.43.64-1.43,1.43s.64,1.43,1.43,1.43h38.92v-2.85Z"></path>
          <path class="cls-4" d="M1287.83,565.15h0v2.85h0c.79,0,1.43-.64,1.43-1.43s-.64-1.43-1.43-1.43"></path>
          <path class="cls-13" d="M1287.83,581.48h-38.92c-.79,0-1.43.64-1.43,1.43s.64,1.43,1.43,1.43h38.92v-2.85Z"></path>
          <path class="cls-4" d="M1287.83,581.48h0v2.85h0c.79,0,1.43-.64,1.43-1.43s-.64-1.43-1.43-1.43"></path>
          <path class="cls-13" d="M1287.83,598.53h-38.92c-.79,0-1.43.64-1.43,1.43s.64,1.43,1.43,1.43h38.92v-2.85Z"></path>
          <path class="cls-4" d="M1287.83,598.53h0v2.85h0c.79,0,1.43-.64,1.43-1.43s-.64-1.43-1.43-1.43"></path>
          <path class="cls-13" d="M1287.83,615.56h-38.92c-.79,0-1.43.64-1.43,1.43s.64,1.43,1.43,1.43h38.92v-2.85Z"></path>
          <path class="cls-4" d="M1287.83,615.56h0v2.85h0c.79,0,1.43-.64,1.43-1.43s-.64-1.43-1.43-1.43"></path>
          <path class="cls-13" d="M1287.83,632.61h-38.92c-.79,0-1.43.64-1.43,1.43s.64,1.43,1.43,1.43h38.92v-2.85Z"></path>
          <path class="cls-4" d="M1287.83,632.61h0v2.85h0c.79,0,1.43-.64,1.43-1.43s-.64-1.43-1.43-1.43"></path>
          <path class="cls-13" d="M1287.83,649.65h-38.92c-.79,0-1.43.64-1.43,1.43s.64,1.43,1.43,1.43h38.92v-2.85Z"></path>
          <path class="cls-4" d="M1287.83,649.65h0v2.85h0c.79,0,1.43-.64,1.43-1.43s-.64-1.43-1.43-1.43"></path>
        </g>
        <path class="cls-8" d="M839.53,411.6l117.46,61.81c4.93,2.6,8.02,7.71,8.02,13.29v206.11h-125.49v-281.21Z"></path>
        <path class="cls-1" d="M957.37,473.6l-32.69-17.21v236.41h40.34v-206.53c0-5.32-2.95-10.2-7.65-12.68"></path>
        <path class="cls-1" d="M1454.63,267.33h6.18c2.58,0,4.66,2.09,4.66,4.66v20.17c0,2.58,2.09,4.66,4.66,4.66h7.52c2.58,0,4.66,2.09,4.66,4.66v9.97c0,2.58,2.09,4.66,4.66,4.66h7.33c2.58,0,4.66,2.09,4.66,4.66v372.01h-105.22v-425.48h60.87Z"></path>
        <rect class="cls-13" x="995.68" y="574.55" width="126.39" height="118.26"></rect>
        <path class="cls-8" d="M995.68,574.55l20.4-37.33c2.62-4.8,7.66-7.79,13.13-7.79h119.06s-26.21,45.12-26.21,45.12h-126.39Z"></path>
        <path class="cls-1" d="M1172.12,571.2l-23.84-41.77-26.21,45.12v118.26h51.96v-114.4c0-2.53-.66-5.01-1.91-7.21"></path>
        <path class="cls-8" d="M2040.56,574.01l-96.89-40.56c-10.35-4.33-21.47-6.57-32.69-6.57h-49.88s113.61,47.12,113.61,47.12h65.85Z"></path>
        <path class="cls-10" d="M1745.82,577.45v115.35h37.18v-129.51l-33.87,9.76c-1.96.57-3.31,2.36-3.31,4.4"></path>
        <polygon class="cls-10" points="1974.71 574.01 1884.28 536.5 1884.28 692.8 1974.71 692.8 1974.71 574.01"></polygon>
        <path class="cls-13" d="M1881.76,428.69c1.64,2.45,2.52,5.33,2.52,8.28v255.83h-50.61v-260.35l24.92-37.06c.77.4,1.44.99,1.94,1.73l21.23,31.57Z"></path>
        <path class="cls-8" d="M1806.75,397.13c.5-.75,1.17-1.34,1.95-1.73l24.97,37.05v116.32l-50.67,14.52v-126.32c0-2.95.88-5.83,2.53-8.28l21.22-31.56Z"></path>
        <polygon class="cls-12" points="1833.67 548.77 1783 563.29 1783 692.8 1833.67 692.8 1833.67 548.77"></polygon>
        <path class="cls-1" d="M1858.59,395.39l-24.92,37.06-24.97-37.05c.73-.38,1.55-.59,2.39-.59h45.1c.85,0,1.67.21,2.4.58Z"></path>
        <path class="cls-4" d="M1602.19,427.02h-120.01c-2.92,0-5.28,2.37-5.28,5.28v260.5h125.29v-265.78Z"></path>
        <path class="cls-8" d="M1421.45,311.46v-9.97c0-2.58-2.09-4.66-4.66-4.66h-7.52c-2.58,0-4.66-2.09-4.66-4.66v-20.17c0-2.58-2.09-4.66-4.66-4.66h-6.18s-6.18,0-6.18,0c-2.58,0-4.66,2.09-4.66,4.66v20.17c0,2.57-2.09,4.66-4.66,4.66h-7.52c-2.58,0-4.66,2.09-4.66,4.66v9.97c0,2.58-2.09,4.66-4.66,4.66h-7.33c-2.58,0-4.66,2.09-4.66,4.66v372.01h88.69v-372.01c0-2.58-2.09-4.66-4.66-4.66h-7.33c-2.58,0-4.66-2.09-4.66-4.66"></path>
        <polygon class="cls-10" points="1649.38 451.75 1602.2 426.9 1602.2 692.8 1649.38 692.8 1649.38 451.75"></polygon>
        <path class="cls-12" d="M1498.98,443.03c-.93,0-1.68.75-1.68,1.68v248.09s0-.02,0,0h3.35s0,.02,0,0v-248.09c0-.93-.75-1.68-1.68-1.68"></path>
        <path class="cls-12" d="M1524.41,443.04c-.93,0-1.68.75-1.68,1.68v248.09s0-.02,0,0h3.35s0,.02,0,0v-248.09c0-.93-.75-1.68-1.68-1.68"></path>
        <path class="cls-12" d="M1549.91,443.04c-.93,0-1.68.75-1.68,1.68v248.09s0-.02,0,0h3.35s0,.02,0,0v-248.09c0-.93-.75-1.68-1.68-1.68"></path>
        <path class="cls-12" d="M1575.34,443.04c-.92,0-1.68.75-1.68,1.68v248.09s0-.02,0,0h3.35s0,.02,0,0v-248.09c0-.93-.75-1.68-1.68-1.68"></path>
        <path class="cls-13" d="M1020.66,602.56c-.93,0-1.68.75-1.68,1.68v88.57c0,.09,0-.08.02,0h3.31c.01-.08.02.09.02,0v-88.57c0-.93-.75-1.68-1.68-1.68"></path>
        <path class="cls-13" d="M1046.15,602.56c-.93,0-1.68.75-1.68,1.68v88.57c0,.09,0-.08.02,0h3.31c.01-.08.02.09.02,0v-88.57c0-.93-.75-1.68-1.68-1.68"></path>
        <path class="cls-13" d="M1071.58,602.56c-.93,0-1.68.75-1.68,1.68v88.57c0,.09,0-.08.02,0h3.31c.01-.08.02.09.02,0v-88.57c0-.93-.75-1.68-1.68-1.68"></path>
        <path class="cls-13" d="M1097.02,602.56c-.93,0-1.68.75-1.68,1.68v88.57c0,.09,0-.08.02,0h3.31c.01-.08.02.09.02,0v-88.57c0-.93-.75-1.68-1.68-1.68"></path>
        <path class="cls-12" d="M1148.96,620.49h0c-2.8,0-5.07,2.27-5.07,5.07v67.24h10.13v-67.24c0-2.8-2.27-5.07-5.07-5.07"></path>
        <path class="cls-4" d="M1625.92,617h0c-2.8,0-5.07,2.27-5.07,5.07v70.74h10.14v-70.74c0-2.8-2.27-5.07-5.07-5.07"></path>
        <path class="cls-12" d="M712.79,643.55h0c-2.8,0-5.07,2.27-5.07,5.07v44.19h10.13v-44.19c0-2.8-2.27-5.07-5.07-5.07"></path>
        <path class="cls-12" d="M1380.33,347.44h0c-1.43,0-2.58,1.16-2.58,2.58v11.94c0,1.43,1.16,2.58,2.58,2.58,1.43,0,2.58-1.16,2.58-2.58v-11.94c0-1.42-1.16-2.58-2.58-2.58"></path>
        <path class="cls-12" d="M1380.33,541.02h0c-1.43,0-2.58,1.16-2.58,2.58v11.94c0,1.43,1.16,2.58,2.58,2.58s2.58-1.16,2.58-2.58v-11.94c0-1.43-1.16-2.58-2.58-2.58"></path>
        <path class="cls-12" d="M1408.8,466.33h0c-1.43,0-2.58,1.16-2.58,2.58v11.94c0,1.43,1.16,2.58,2.58,2.58s2.58-1.16,2.58-2.58v-11.94c0-1.43-1.16-2.58-2.58-2.58"></path>
        <polygon class="cls-1" points="1833.68 431.54 1833.68 432.44 1834.28 431.54 1833.68 431.54"></polygon>
        <path class="cls-12" d="M1635.89,466.33h0c-1.43,0-2.58,1.16-2.58,2.58v11.94c0,1.43,1.16,2.58,2.58,2.58s2.58-1.16,2.58-2.58v-11.94c0-1.43-1.16-2.58-2.58-2.58"></path>
        <path class="cls-12" d="M1622.4,527.92h0c-1.43,0-2.58,1.16-2.58,2.58v11.94c0,1.43,1.16,2.58,2.58,2.58h0c1.43,0,2.58-1.16,2.58-2.58v-11.94c0-1.43-1.16-2.58-2.58-2.58"></path>
        <path class="cls-12" d="M1808.31,453.23h0c-1.42,0-2.58,1.16-2.58,2.58v11.94c0,1.43,1.16,2.58,2.58,2.58s2.58-1.16,2.58-2.58v-11.94c0-1.43-1.16-2.58-2.58-2.58"></path>
        <path class="cls-1" d="M504.93,647.21l-12.69-33.83c-.82-1.95-2.61-2.92-4.41-2.92v82.33h28.16c2.91,0,4.93-2.91,3.91-5.64l-14.97-39.95Z"></path>
        <path class="cls-8" d="M483.38,613.58l-.02-.04-12.63,33.67-14.97,39.95c-1.02,2.73,1,5.64,3.91,5.64h28.16v-82.33c-1.85,0-3.68,1.04-4.45,3.11"></path>
        <path class="cls-13" d="M539.28,656.61l-10.07-26.86c-.65-1.55-2.07-2.32-3.5-2.32v65.37h22.36c2.31,0,3.91-2.31,3.1-4.48l-11.89-31.72Z"></path>
        <path class="cls-8" d="M522.17,629.9v-.03s-10.04,26.74-10.04,26.74l-11.89,31.72c-.81,2.17.79,4.48,3.1,4.48h22.36v-65.37c-1.46,0-2.92.83-3.53,2.47"></path>
      </g>
      <circle class="cls-12" cx="1488.83" cy="203.15" r="36.13" transform="translate(292.42 1112.26) rotate(-45)"></circle>
      <rect class="cls-6" x="0" y="691.82" width="1920" height="388.18"></rect>
      <path class="cls-12" d="M1266.73,168.21c.67,0,1.2-.56,1.17-1.22-.64-14.08-12.24-25.62-26.47-25.62-3.62,0-7.07.73-10.22,2.04-1.93.81-4.12-.32-4.61-2.36-4.47-18.89-21.45-32.95-41.71-32.95-17.9,0-33.24,10.98-39.64,26.57-.74,1.81-2.86,2.64-4.61,1.76-5.24-2.63-11.15-4.12-17.41-4.12-16.08,0-29.87,9.77-35.78,23.69-.74,1.75-2.77,2.58-4.5,1.8-2.68-1.2-5.66-1.87-8.79-1.87-7.86,0-14.74,4.21-18.51,10.5-.47.78.1,1.77,1.01,1.77h210.05Z"></path>
      <path class="cls-12" d="M1728.61,270.33c.58,0,1.04-.52.94-1.09-1.26-7.82-8.04-13.8-16.22-13.8-2.72,0-5.29.66-7.55,1.84-.56.29-1.24-.06-1.36-.69-2.26-12.39-13.11-21.78-26.15-21.78-14.67,0-26.57,11.9-26.57,26.58,0,0,0,0,0,.01,0,.62-.57,1.09-1.17.94-1.15-.29-2.36-.44-3.61-.44-5.31,0-9.97,2.79-12.58,6.99-.39.63.07,1.45.82,1.45h93.45Z"></path>
      <circle class="cls-12" cx="1488.83" cy="203.15" r="36.13" transform="translate(292.42 1112.26) rotate(-45)"></circle>
      <g>
        <path class="cls-12" d="M1576.78,791.54c2.56-.26,4.51-2.82,4.51-5.4,0-1.68,0-27.74,0-28.62,0-1.54-1.17-2.83-2.7-2.98-2.31-.23-6.6-1.51-6.57-6.94l-5.71-172.97c0-11.72-9.5-21.21-21.21-21.21l-291.78.07s-87.42-3.82-133.36,43.34c-45.93,47.16-65.24,71.6-65.24,71.6,1.41-.56-30.65,9.37-60.73,23.26-5.12,2.3-9.65,5.89-13.07,10.34-2.52,3.27-4.34,7.01-5.47,10.96l30.52-5.82c4.03-.78,5.91-.55,5.85,3.91.18,12.61-10.38,23.6-25.18,26.2,0,0-8.32,1.01-15.59,1.88-.75,5.57-2.05,16.18-2.75,21.77-4.77,27.4,10.53,30.6,30.87,30.6h577.61Z"></path>
        <path class="cls-12" d="M999.17,791.54c2.85,0,5.38,1.93,6.01,4.71,12.41,51.34,84.68,51.15,96.86-.2.61-2.72,3.04-4.53,5.83-4.51,14.5,0-10.07-44.93-54.35-44.93s-67.24,44.93-54.35,44.93Z"></path>
        <path class="cls-11" d="M1053.58,809.7c13.3,0,24.07-10.78,24.07-24.07s-10.78-24.07-24.07-24.07c-13.29,0-24.07,10.78-24.07,24.07s10.78,24.07,24.07,24.07"></path>
        <path class="cls-11" d="M1070.03,678.68c-1.5,1.86.15,4.57,2.49,4.1l93.54-16.29s12.33-1.81,16.87-7.98c5.55-7.54,9.36-49.08,9.36-49.08.49-7.59-3.71-9.75-9.21-9.37-4.33.35-17.21,1.38-29.35,2.42-14.87,1.27-21.04,6.71-34.82,21.22l-48.88,54.98Z"></path>
        <path class="cls-12" d="M1413.74,791.54c2.85,0,5.38,1.93,6.01,4.71,12.41,51.34,84.68,51.15,96.86-.2.61-2.72,3.04-4.53,5.83-4.51,14.5,0-10.07-44.93-54.35-44.93s-67.24,44.93-54.35,44.93Z"></path>
        <path class="cls-11" d="M1468.16,809.7c13.3,0,24.07-10.78,24.07-24.07s-10.78-24.07-24.07-24.07c-13.29,0-24.07,10.78-24.07,24.07s10.78,24.07,24.07,24.07"></path>
        <path class="cls-11" d="M975.46,713l30.52-5.82c4.03-.78,5.91-.55,5.85,3.91.18,12.61-10.38,23.6-25.18,26.2,0,0-8.32,1.01-15.59,1.88"></path>
      </g>
      <g>
        <circle class="cls-7" cx="1504.71" cy="855.52" r="30.1" transform="translate(405.9 2192.93) rotate(-80.21)"></circle>
        <circle class="cls-7" cx="1554.97" cy="855.52" r="44.12" transform="translate(447.62 2242.46) rotate(-80.21)"></circle>
        <circle class="cls-7" cx="1604.86" cy="832.57" r="25.26" transform="translate(511.65 2272.58) rotate(-80.21)"></circle>
        <circle class="cls-7" cx="1642.61" cy="840.8" r="18.78" transform="translate(534.86 2316.61) rotate(-80.21)"></circle>
        <rect class="cls-6" x="1444.64" y="835.07" width="236.61" height="92.8"></rect>
      </g>
      <path class="cls-12" d="M1266.73,168.21c.67,0,1.2-.56,1.17-1.22-.64-14.08-12.24-25.62-26.47-25.62-3.62,0-7.07.73-10.22,2.04-1.93.81-4.12-.32-4.61-2.36-4.47-18.89-21.45-32.95-41.71-32.95-17.9,0-33.24,10.98-39.64,26.57-.74,1.81-2.86,2.64-4.61,1.76-5.24-2.63-11.15-4.12-17.41-4.12-16.08,0-29.87,9.77-35.78,23.69-.74,1.75-2.77,2.58-4.5,1.8-2.68-1.2-5.66-1.87-8.79-1.87-7.86,0-14.74,4.21-18.51,10.5-.47.78.1,1.77,1.01,1.77h210.05Z"></path>
      <path class="cls-12" d="M1729.69,270.33c-.77-8.35-7.81-14.9-16.36-14.9-3.19,0-6.18.91-8.7,2.49-1.7-13.05-12.85-23.12-26.36-23.12-14.67,0-26.57,11.9-26.57,26.58,0,0,0,0,0,.01,0,.62-.57,1.09-1.17.94-1.15-.29-2.36-.44-3.61-.44-5.9,0-10.99,3.45-13.38,8.44h96.14Z"></path>
      <rect class="cls-1" x="1397.88" y="949.33" width="137.41" height="130.67"></rect>
      <path class="cls-8" d="M1535.29,949.32l-108.34-72.23c-6.16-4.1-13.39-6.29-20.78-6.29h-114.78s106.49,78.52,106.49,78.52h137.41Z"></path>
      <polygon class="cls-13" points="1184.4 949.32 1184.4 1080 1397.87 1080 1397.87 949.32 1291.38 870.8 1184.4 949.32"></polygon>
      <path class="cls-12" d="M1466.57,1009.36h0c3.61,0,6.54,2.93,6.54,6.54v30.26c0,3.61-2.93,6.54-6.54,6.54-3.61,0-6.54-2.93-6.54-6.54v-30.26c0-3.61,2.93-6.54,6.54-6.54"></path>
      <path class="cls-10" d="M988.32,939.62l-80.45-45.27-86.04,48.42v137.24h172.09v-130.82c0-3.96-2.14-7.61-5.59-9.56"></path>
      <polygon class="cls-4" points="821.83 942.76 740.36 942.76 821.83 894.34 907.87 894.34 821.83 942.76"></polygon>
      <rect class="cls-12" x="740.36" y="942.77" width="81.47" height="137.23"></rect>
      <path class="cls-12" d="M920.78,1010.44c0,6.39,0,69.55,0,69.55h-25.68v-69.57c0-7.09,3.73-14.35,12.84-14.35,9.11,0,12.84,7.98,12.84,14.37Z"></path>
      <path class="cls-10" d="M1628.57,858.98l64.07-35.95,69.5,39.09v217.88s-139.18,0-139.18,0v-211.45c0-3.97,2.14-7.63,5.6-9.57"></path>
      <path class="cls-5" d="M1762.19,862.12h65.77s-57.36-34.1-57.36-34.1c-5.5-3.27-11.78-5-18.18-5h-59.77s69.54,39.1,69.54,39.1Z"></path>
      <rect class="cls-9" x="1762.19" y="862.13" width="65.77" height="217.86"></rect>
      <path class="cls-12" d="M1692.48,894.34h0c3.61,0,6.54,2.93,6.54,6.54v30.26c0,3.61-2.93,6.54-6.54,6.54-3.61,0-6.54-2.93-6.54-6.54v-30.26c0-3.61,2.93-6.54,6.54-6.54"></path>
      <path class="cls-5" d="M1068.74,1080c-7.95,0-14.22-7.08-12.87-14.91,7.26-42.19,44.84-74.3,90.03-74.3,45.19,0,82.83,32.1,90.11,74.29,1.35,7.83-4.93,14.91-12.87,14.91h-154.39Z"></path>
      <path class="cls-7" d="M681.61,1080c-4.72,0-8.45-4.2-7.65-8.85,4.32-25.07,26.64-44.14,53.49-44.14,26.85,0,49.21,19.08,53.54,44.14.8,4.65-2.93,8.85-7.65,8.85h-91.73Z"></path>
      <path class="cls-13" d="M1885.6,988.27l25.53-68.07c1.65-3.92,5.25-5.88,8.87-5.87v165.66s-56.66,0-56.66,0c-5.86,0-9.92-5.84-7.86-11.33l30.12-80.39Z"></path>
      <path class="cls-5" d="M1928.96,920.59l.03-.08,25.41,67.76,30.12,80.39c2.06,5.49-2,11.33-7.86,11.33h-56.66v-165.66c3.71.02,7.41,2.1,8.96,6.25"></path>
      <rect class="cls-13" x="293.06" y="834.56" width="233.09" height="245.44"></rect>
      <path class="cls-8" d="M526.15,834.56l-37.62-68.84c-4.84-8.86-14.13-14.37-24.22-14.37h-219.57s48.33,83.21,48.33,83.21h233.09Z"></path>
      <path class="cls-1" d="M200.76,828.39l43.97-77.04,48.33,83.21v245.43s-95.83,0-95.83,0v-238.32c0-4.66,1.21-9.24,3.53-13.29"></path>
      <path class="cls-8" d="M243.48,919.3h0c5.16,0,9.34,4.18,9.34,9.34v109.88c0,5.16-4.18,9.34-9.34,9.34h0c-5.16,0-9.34-4.18-9.34-9.34v-109.88c0-5.16,4.18-9.34,9.34-9.34"></path>
      <path class="cls-8" d="M-16.27,909.08v170.91H112.14v-159.42c0-7.48-2.23-14.79-6.41-20.99l-41.54-61.82-12.23-18.17c-1.28-1.9-2.97-3.38-4.93-4.39l-63.3,93.88Z"></path>
      <path class="cls-1" d="M-79.42,815.2l63.15,93.88,63.3-93.88c-1.84-.95-3.92-1.48-6.09-1.48h-114.28c-2.17,0-4.24.53-6.09,1.48Z"></path>
      <path class="cls-12" d="M48.01,961.77h0c3.61,0,6.54,2.93,6.54,6.54v30.26c0,3.61-2.93,6.54-6.54,6.54-3.61,0-6.54-2.93-6.54-6.54v-30.26c0-3.61,2.93-6.54,6.54-6.54"></path>
      <path class="cls-4" d="M523.14,988.29l25.53-68.07c1.65-3.92,5.25-5.88,8.87-5.87v165.64s-56.66,0-56.66,0c-5.86,0-9.92-5.83-7.86-11.32l30.12-80.39Z"></path>
      <path class="cls-10" d="M566.5,920.61l.03-.08,25.41,67.76,30.12,80.39c2.06,5.49-2,11.32-7.86,11.32h-56.66v-165.64c3.71.02,7.41,2.1,8.96,6.25"></path>
    </g>
  </g>
  <g id="VANS">
    <g>
      <g>
        <path class="cls-12" d="M1576.8,791.54c2.56-.26,4.51-2.82,4.51-5.4,0-1.68,0-27.74,0-28.62,0-1.54-1.17-2.83-2.7-2.98-2.31-.23-6.6-1.51-6.57-6.94l-5.71-172.97c0-11.72-9.5-21.21-21.21-21.21l-291.78.07s-87.42-3.82-133.36,43.34c-45.93,47.16-65.24,71.6-65.24,71.6,1.41-.56-30.65,9.37-60.73,23.26-5.12,2.3-9.65,5.89-13.07,10.34-2.52,3.27-4.34,7.01-5.47,10.96l30.52-5.82c4.03-.78,5.91-.55,5.85,3.91.18,12.61-10.38,23.6-25.18,26.2,0,0-8.32,1.01-15.59,1.88-.75,5.57-2.05,16.18-2.75,21.77-4.77,27.4,10.53,30.6,30.87,30.6h577.61Z"></path>
        <path class="cls-12" d="M999.19,791.54c2.85,0,5.38,1.93,6.01,4.71,12.41,51.34,84.68,51.15,96.86-.2.61-2.72,3.04-4.53,5.83-4.51,14.5,0-10.07-44.93-54.35-44.93s-67.24,44.93-54.35,44.93Z"></path>
        <path class="cls-11" d="M1053.6,809.7c13.3,0,24.07-10.78,24.07-24.07s-10.78-24.07-24.07-24.07c-13.29,0-24.07,10.78-24.07,24.07s10.78,24.07,24.07,24.07"></path>
        <path class="cls-11" d="M1070.05,678.68c-1.5,1.86.15,4.57,2.49,4.1l93.54-16.29s12.33-1.81,16.87-7.98c5.55-7.54,9.36-49.08,9.36-49.08.49-7.59-3.71-9.75-9.21-9.37-4.33.35-17.21,1.38-29.35,2.42-14.87,1.27-21.04,6.71-34.82,21.22l-48.88,54.98Z"></path>
        <path class="cls-12" d="M1413.77,791.54c2.85,0,5.38,1.93,6.01,4.71,12.41,51.34,84.68,51.15,96.86-.2.61-2.72,3.04-4.53,5.83-4.51,14.5,0-10.07-44.93-54.35-44.93s-67.24,44.93-54.35,44.93Z"></path>
        <path class="cls-11" d="M1468.18,809.7c13.3,0,24.07-10.78,24.07-24.07s-10.78-24.07-24.07-24.07c-13.29,0-24.07,10.78-24.07,24.07s10.78,24.07,24.07,24.07"></path>
        <path class="cls-11" d="M975.48,713l30.52-5.82c4.03-.78,5.91-.55,5.85,3.91.18,12.61-10.38,23.6-25.18,26.2,0,0-8.32,1.01-15.59,1.88"></path>
      </g>
      <g>
        <path class="cls-2" d="M1263.51,602.19h-13.71v44.43h13.52c13.83,0,22.11-8.58,22.11-22.59s-8.09-21.84-21.92-21.84ZM1262.57,639.95h-6.11v-31.09h6.11c10.99,0,16.11,5.65,16.11,15.34s-5.12,15.75-16.11,15.75Z"></path>
        <path class="cls-2" d="M1299.52,616.32c-1.17.86-1.98,1.91-2.78,3.15v-4.81h-6.6v31.97h6.67v-18.02c0-6.48,4.63-7.65,8.02-7.65.8,0,1.54,0,3.15.12v-6.48c-.49-.12-1.3-.18-2.1-.18-2.65,0-4.44.49-6.36,1.91Z"></path>
        <path class="cls-2" d="M1337.74,625.64c.06-8.76-5.49-11.73-12.9-11.73s-13.15,4.2-14.01,10.86h6.48c.74-3.58,3.27-5.49,7.28-5.49s6.6,1.67,6.6,6.17v.31l-7.22,1.17c-8.39,1.36-14.19,3.64-14.19,10.62,0,6.48,5.68,9.75,11.6,9.75,4.81,0,8.21-1.79,10.25-4.88l.12,4.2h6.17c-.25-3.89-.31-5.43-.31-6.42l.12-14.57ZM1331.2,633.29c0,5.68-3.83,8.58-8.58,8.58-3.64,0-6.23-1.67-6.23-4.63,0-3.83,4.32-4.94,14.81-6.23v2.28Z"></path>
        <path class="cls-2" d="M1366.14,618.72c-1.85-2.84-5.31-4.81-9.75-4.81-7.72,0-14.44,5.8-14.44,15.74s6.42,15.99,14.32,15.99c4.69,0,8.21-2.04,9.87-4.94v5c0,5.25-3.21,7.78-8.09,7.78s-7.72-1.85-8.7-5.25h-6.61c1.05,6.36,6.48,10.74,15.31,10.74,8.15,0,14.69-4.57,14.69-13.33v-30.98h-6.6v4.07ZM1357.56,640.02c-4.94,0-8.7-3.95-8.7-10.37s3.76-10.06,8.7-10.06,8.64,3.7,8.64,10.06-3.83,10.37-8.64,10.37Z"></path>
        <path class="cls-2" d="M1392.56,613.91c-9.07,0-16.36,6.61-16.36,16.48,0,10.43,7.28,16.91,16.36,16.91s16.36-6.67,16.36-16.91-7.16-16.48-16.36-16.48ZM1392.56,641.44c-5.61,0-9.5-4.51-9.5-11.05,0-6.17,3.83-10.62,9.5-10.62s9.51,4.44,9.51,10.62c0,6.6-3.89,11.05-9.51,11.05Z"></path>
        <path class="cls-2" d="M1428.81,613.91c-4.2,0-7.59,1.73-9.57,4.69v-3.95h-6.61v31.97h6.67v-17.59c0-6.3,3.46-9.32,7.41-9.32,4.38,0,6.97,3.03,6.97,7.78v19.13h6.67v-19.94c0-8.27-4.44-12.78-11.54-12.78Z"></path>
        <path class="cls-2" d="M1467.3,614.65h-13.02v-3.27c0-3.27,1.67-3.89,3.95-3.89,1.17,0,2.41.06,3.39.12v-5.43c-1.42-.06-2.71-.12-4.44-.12-5.74,0-9.44,2.04-9.44,9.01v3.58h-5.62v5.37h5.62v26.6h6.54v-26.6h13.02v26.6h6.67v-44.44h-6.67v12.47Z"></path>
        <polygon class="cls-2" points="1500.96 614.65 1492.75 636.44 1483.93 614.65 1476.77 614.65 1489.48 644.34 1483.68 658.35 1490.53 658.35 1507.81 614.65 1500.96 614.65"></polygon>
      </g>
    </g>
  </g>
</svg>
